{
    "accessors" : [
        {
            "bufferView" : 0, 
            "componentType" : 5121, 
            "count" : 18, 
            "max" : [
                15
            ], 
            "min" : [
                0
            ], 
            "type" : "SCALAR"
        }, 
        {
            "bufferView" : 1, 
            "componentType" : 5126, 
            "count" : 16, 
            "max" : [
                0.5, 
                0.5, 
                0.5
            ], 
            "min" : [
                -0.5, 
                0.0, 
                -0.5
            ], 
            "type" : "VEC3"
        }, 
        {
            "bufferView" : 2, 
            "componentType" : 5126, 
            "count" : 16, 
            "max" : [
                0.5773502588272095, 
                0.5773502588272095, 
                0.5773503184318542
            ], 
            "min" : [
                -0.5773502588272095, 
                -1.0, 
                -0.5773502588272095
            ], 
            "type" : "VEC3"
        }
    ], 
    "asset" : {
        "generator" : "Khronos Blender glTF 2.0 exporter", 
        "version" : "2.0"
    }, 
    "bufferViews" : [
        {
            "buffer" : 0, 
            "byteLength" : 18, 
            "byteOffset" : 0, 
            "target" : 34963
        }, 
        {
            "buffer" : 0, 
            "byteLength" : 192, 
            "byteOffset" : 20, 
            "target" : 34962
        }, 
        {
            "buffer" : 0, 
            "byteLength" : 192, 
            "byteOffset" : 212, 
            "target" : 34962
        }
    ], 
    "buffers" : [
        {
            "byteLength" : 404, 
            "uri" : "cone.bin"
        }
    ], 
    "meshes" : [
        {
            "name" : "Cone", 
            "primitives" : [
                {
                    "attributes" : {
                        "NORMAL" : 2, 
                        "POSITION" : 1
                    }, 
                    "indices" : 0
                }
            ]
        }
    ], 
    "nodes" : [
        {
            "mesh" : 0, 
            "name" : "Cone"
        }
    ], 
    "scene" : 0, 
    "scenes" : [
        {
            "name" : "Scene", 
            "nodes" : [
                0
            ]
        }
    ]
}
