{
    "accessors" : [
        {
            "bufferView" : 0, 
            "componentType" : 5123, 
            "count" : 2904, 
            "max" : [
                1967
            ], 
            "min" : [
                0
            ], 
            "type" : "SCALAR"
        }, 
        {
            "bufferView" : 1, 
            "componentType" : 5126, 
            "count" : 1968, 
            "max" : [
                1.3671875, 
                0.984375, 
                0.8515625
            ], 
            "min" : [
                -1.3671875, 
                -0.984375, 
                -0.8515625
            ], 
            "type" : "VEC3"
        }, 
        {
            "bufferView" : 2, 
            "componentType" : 5126, 
            "count" : 1968, 
            "max" : [
                1.0, 
                0.9970182180404663, 
                1.0
            ], 
            "min" : [
                -1.0, 
                -0.992402970790863, 
                -0.9864740371704102
            ], 
            "type" : "VEC3"
        }, 
        {
            "bufferView" : 3, 
            "componentType" : 5126, 
            "count" : 1968, 
            "max" : [
                0.9995853304862976, 
                0.9980000853538513, 
                0.9844022393226624, 
                1.0
            ], 
            "min" : [
                -0.9364750981330872, 
                -0.9992292523384094, 
                -0.9845995306968689, 
                1.0
            ], 
            "type" : "VEC4"
        }, 
        {
            "bufferView" : 4, 
            "componentType" : 5126, 
            "count" : 1968, 
            "max" : [
                0.9998559951782227, 
                0.9998559999949066
            ], 
            "min" : [
                0.00014400000509340316, 
                0.0951489806175232
            ], 
            "type" : "VEC2"
        }
    ], 
    "asset" : {
        "generator" : "Khronos Blender glTF 2.0 exporter", 
        "version" : "2.0"
    }, 
    "bufferViews" : [
        {
            "buffer" : 0, 
            "byteLength" : 5808, 
            "byteOffset" : 0, 
            "target" : 34963
        }, 
        {
            "buffer" : 0, 
            "byteLength" : 23616, 
            "byteOffset" : 5808, 
            "target" : 34962
        }, 
        {
            "buffer" : 0, 
            "byteLength" : 23616, 
            "byteOffset" : 29424, 
            "target" : 34962
        }, 
        {
            "buffer" : 0, 
            "byteLength" : 31488, 
            "byteOffset" : 53040, 
            "target" : 34962
        }, 
        {
            "buffer" : 0, 
            "byteLength" : 15744, 
            "byteOffset" : 84528, 
            "target" : 34962
        }
    ], 
    "buffers" : [
        {
            "byteLength" : 100272, 
            "uri" : "suzanne.bin"
        }
    ], 
    "meshes" : [
        {
            "name" : "Suzanne", 
            "primitives" : [
                {
                    "attributes" : {
                        "NORMAL" : 2, 
                        "POSITION" : 1, 
                        "TANGENT" : 3, 
                        "TEXCOORD_0" : 4
                    }, 
                    "indices" : 0
                }
            ]
        }
    ], 
    "nodes" : [
        {
            "mesh" : 0, 
            "name" : "Suzanne"
        }
    ], 
    "scene" : 0, 
    "scenes" : [
        {
            "name" : "Scene", 
            "nodes" : [
                0
            ]
        }
    ]
}
